<svg width="36" height="50" viewBox="0 0 36 50" fill="none" xmlns="http://www.w3.org/2000/svg">
<path d="M17.9925 7.20898C16.2615 7.20898 14.5695 7.72227 13.1302 8.68393C11.691 9.64559 10.5693 11.0124 9.90686 12.6116C9.24445 14.2108 9.07114 15.9705 9.40883 17.6682C9.74652 19.3659 10.58 20.9253 11.804 22.1492C13.028 23.3732 14.5874 24.2067 16.2851 24.5444C17.9828 24.8821 19.7425 24.7088 21.3416 24.0464C22.9408 23.384 24.3077 22.2623 25.2693 20.823C26.231 19.3838 26.7443 17.6917 26.7443 15.9608C26.7443 13.6397 25.8222 11.4136 24.1809 9.77233C22.5396 8.13105 20.3136 7.20898 17.9925 7.20898ZM17.9925 21.6579C16.8657 21.6579 15.7642 21.3237 14.8273 20.6977C13.8905 20.0717 13.1603 19.182 12.7291 18.141C12.2979 17.1 12.185 15.9545 12.4049 14.8493C12.6247 13.7442 13.1673 12.7291 13.964 11.9323C14.7608 11.1356 15.7759 10.593 16.881 10.3732C17.9861 10.1534 19.1316 10.2662 20.1726 10.6974C21.2137 11.1286 22.1034 11.8588 22.7294 12.7957C23.3554 13.7325 23.6895 14.834 23.6895 15.9608C23.6855 17.4691 23.0835 18.9142 22.0155 19.9794C20.9475 21.0445 19.5008 21.6426 17.9925 21.6426V21.6579Z" fill="white"/>
<path d="M17.9924 1.51197e-09C13.2349 0.00397355 8.67236 1.8904 5.30119 5.24726C1.93002 8.60411 0.0242092 13.1586 0 17.916C0 25.0488 4.0017 31.0208 6.93424 35.3738L7.46882 36.168C10.3865 40.3967 13.5165 44.4749 16.8468 48.3869L18.0076 49.7463L19.1684 48.3869C22.4983 44.4746 25.6283 40.3964 28.5465 36.168L29.081 35.3585C31.9983 31.0055 36 25.0488 36 17.916C35.9758 13.156 34.0679 8.59916 30.6934 5.24187C27.3189 1.88458 22.7524 -6.16385e-05 17.9924 1.51197e-09ZM26.5303 33.602L25.9805 34.4115C23.3534 38.3521 19.871 42.7662 17.9924 44.9504C16.1901 42.7662 12.6313 38.3521 10.0042 34.4115L9.46966 33.602C6.76623 29.5698 3.05473 24.056 3.05473 17.8549C3.05473 15.8933 3.4411 13.9508 4.19179 12.1385C4.94248 10.3262 6.04277 8.67949 7.42986 7.2924C8.81695 5.90531 10.4637 4.80501 12.276 4.05433C14.0883 3.30364 16.0307 2.91727 17.9924 2.91727C19.954 2.91727 21.8964 3.30364 23.7087 4.05433C25.5211 4.80501 27.1678 5.90531 28.5549 7.2924C29.942 8.67949 31.0422 10.3262 31.7929 12.1385C32.5436 13.9508 32.93 15.8933 32.93 17.8549C32.93 24.1171 29.2338 29.6309 26.5303 33.602Z" fill="white"/>
</svg>
